<?xml version="1.0" encoding="UTF-8"?>
<svg xmlns="http://www.w3.org/2000/svg" viewBox="0 0 2891.34 1247.24" height="1247.24" width="2891.34" >
  <defs>
    <style>
      .cls-1, .cls-2, .cls-3 {
        fill: #c9c4c2;
      }

      .cls-4 {
        stroke: #000;
      }

      .cls-4, .cls-5, .cls-6, .cls-7, .cls-8, .cls-9, .cls-10, .cls-11, .cls-12, .cls-13, .cls-14, .cls-15, .cls-16, .cls-17, .cls-18, .cls-19 {
        fill: none;
      }

      .cls-4, .cls-5, .cls-6, .cls-7, .cls-8, .cls-9, .cls-10, .cls-12, .cls-13, .cls-14, .cls-15, .cls-16, .cls-17, .cls-20, .cls-18, .cls-19 {
        stroke-width: 4px;
      }

      .cls-4, .cls-5, .cls-6, .cls-7, .cls-8, .cls-9, .cls-10, .cls-12, .cls-13, .cls-14, .cls-15, .cls-16, .cls-17, .cls-18 {
        stroke-linejoin: round;
      }

      .cls-4, .cls-5, .cls-6, .cls-7, .cls-8, .cls-9, .cls-10, .cls-12, .cls-13, .cls-15, .cls-16, .cls-18, .cls-19 {
        stroke-linecap: round;
      }

      .cls-21 {
        fill: #e08253;
      }

      .cls-22, .cls-23, .cls-2, .cls-24, .cls-25, .cls-3, .cls-26, .cls-27 {
        isolation: isolate;
      }

      .cls-22, .cls-24, .cls-25, .cls-26 {
        opacity: .3;
      }

      .cls-28 {
        fill: #58595b;
      }

      .cls-23, .cls-2 {
        opacity: .2;
      }

      .cls-5 {
        stroke: #4d4d4d;
      }

      .cls-6 {
        stroke: #1a1a1a;
      }

      .cls-29 {
        fill: #ff8c9e;
      }

      .cls-30 {
        fill: #19285f;
      }

      .cls-31 {
        fill: #231f20;
      }

      .cls-7, .cls-19 {
        stroke: #080303;
      }

      .cls-32 {
        fill: #2c2c2c;
      }

      .cls-33 {
        fill: #006bb7;
      }

      .cls-34 {
        fill: #080303;
      }

      .cls-24 {
        fill: #4d4d4d;
      }

      .cls-8 {
        stroke: #006bb7;
      }

      .cls-35 {
        fill: #8c4fc2;
        opacity: .3;
      }

      .cls-9, .cls-17 {
        stroke: #202020;
      }

      .cls-10, .cls-11 {
        stroke: #4f051f;
      }

      .cls-25 {
        fill: #8a0009;
      }

      .cls-36, .cls-20 {
        fill: #fff;
      }

      .cls-37 {
        fill: #9c2b42;
      }

      .cls-11, .cls-20 {
        stroke-miterlimit: 10;
      }

      .cls-12 {
        stroke: #fff;
      }

      .cls-38 {
        fill: #e3000f;
      }

      .cls-39, .cls-27 {
        fill: #e3000f;
      }

      .cls-13 {
        stroke: #19285f;
      }

      .cls-40 {
        fill: #9c2b42;
      }

      .cls-41 {
        fill: #bcd3ea;
      }

      .cls-42 {
        opacity: .2;
      }

      .cls-14 {
        stroke: #ededed;
      }

      .cls-26 {
        fill: #202020;
      }

      .cls-27 {
        opacity: .15;
      }

      .cls-43 {
        fill: #e21e26;
      }

      .cls-15 {
        stroke: #9c2b42;
      }

      .cls-16 {
        stroke: #9c2b42;
      }

      .cls-44 {
        fill: #4f051f;
      }

      .cls-20 {
        stroke: #e3000f;
      }

      .cls-18 {
        stroke: #e21e26;
      }

      .cls-45 {
        fill: #30242a;
      }
    </style>
  </defs>
  <g id="background">
    <rect class="cls-41" width="2892" height="1248"/>
    <path class="cls-36" d="M2084.54,399.97h345.06c24.75,0,44.99,20.09,44.99,44.99v345.06c0,24.75-20.09,44.99-44.99,44.99h-345.06c-24.75,0-44.99-20.09-44.99-44.99v-345.06c0-24.9,20.09-44.99,44.99-44.99Z"/>
    <g class="cls-42">
      <path class="cls-33" d="M1637.49,452.1c24.24,117.64,26.6,242.95-42.57,305.03-68.56,61.47-209.26,59.11-320.4,118.22-109.94,59.11-192.12,179.11-304.44,220.5-111.73,41.98-254.78,4.15-360-83.35-104.64-88.09-172.03-225.22-201.58-374.2-30.15-148.37-22.47-307.39,70.94-383.06,92.81-76.26,271.33-70.34,401.97-91.03,130.64-20.7,213.99-68.58,313.31-81.58,99.3-13.02,213.99,8.28,293.2,74.47,80.39,66.21,125.92,176.75,149.56,294.99Z"/>
    </g>
  </g>
  <g id="icone">
    <g>
      <path class="cls-36" d="M1581.71,245.12h-205.32c-11,0-19.94,8.9-19.94,19.94v131.86c0,11,8.9,19.95,19.94,19.95h205.36c11,0,19.95-8.9,19.95-19.95v-131.86c-.04-11.04-8.99-19.94-19.99-19.94Z"/>
      <path class="cls-35" d="M1380.59,276.46c3.97,0,7.2-3.23,7.2-7.2s-3.23-7.2-7.2-7.2-7.2,3.23-7.2,7.2,3.22,7.2,7.2,7.2Z"/>
      <path class="cls-35" d="M1402.11,276.46c3.97,0,7.2-3.23,7.2-7.2s-3.23-7.2-7.2-7.2-7.2,3.23-7.2,7.2,3.22,7.2,7.2,7.2Z"/>
      <path class="cls-35" d="M1423.62,276.46c3.98,0,7.21-3.23,7.21-7.2s-3.23-7.2-7.21-7.2-7.2,3.23-7.2,7.2,3.23,7.2,7.2,7.2Z"/>
    </g>
    <g>
      <path class="cls-1" d="M1316.24,728.58c-14.8,0-30.09-12.05-34.08-26.85l-27.92-104.18c-1.98-7.38-.9-14.27,3.03-19.39,3.74-4.88,9.66-7.55,16.68-7.55h167.23c14.81,0,30.11,12.08,34.09,26.93l27.91,104.1c1.95,7.4.84,14.31-3.11,19.43-3.75,4.85-9.63,7.52-16.59,7.52h-167.24Z"/>
      <path class="cls-22" d="M1407.05,728.58c-.05-.35-.09-.7-.11-1.06-.02-.36-.04-.7-.08-1.04-1.08-10.75-8.07-19.5-15.6-19.5-1.41.02-2.81.33-4.09.93-1.28.6-2.42,1.46-3.34,2.54-3.31,3.63-4.94,9.63-4.35,16.04l.25,2.07-18.71.03-4.18-43.22,64.83-.03,4.26,43.25h-18.89Z"/>
      <path class="cls-28" d="M1336.1,761.82l20.42-76.46,64.91-.02-20.51,76.48h-64.82ZM1383.04,706.98c-7.49,0-15.93,8.75-18.83,19.51-1.74,6.47-1.11,12.5,1.67,16.14.78,1.06,1.81,1.91,2.99,2.5,1.17.58,2.47.87,3.79.85,7.54,0,16.02-8.75,18.92-19.51,1.69-6.49,1.03-12.53-1.77-16.16-.78-1.05-1.81-1.9-2.98-2.48-1.17-.58-2.47-.87-3.79-.85Z"/>
      <path class="cls-4" d="M1350.06,610.42l4.07,15.29"/>
      <path class="cls-4" d="M1369.17,610.42l4.07,15.29"/>
      <path class="cls-4" d="M1388.28,610.42l4.07,15.29"/>
      <path class="cls-28" d="M1430.39,761.82c0-1.54.29-3.05.88-4.47.58-1.41,1.43-2.7,2.52-3.79,1.08-1.09,2.36-1.95,3.77-2.54,1.41-.59,2.94-.89,4.47-.89h138.74c3.09,0,6.05,1.23,8.24,3.42,2.18,2.19,3.42,5.15,3.42,8.24v.03h-162.03Z"/>
      <path class="cls-1" d="M1537.57,761.82c0-1.54.29-3.05.87-4.47.59-1.41,1.44-2.7,2.52-3.79,1.09-1.09,2.37-1.95,3.78-2.54,1.41-.59,2.93-.89,4.46-.89h31.57c3.09,0,6.05,1.23,8.24,3.42,2.18,2.19,3.42,5.15,3.42,8.24v.03h-54.86Z"/>
    </g>
    <line class="cls-18" x1="1274" y1="588" x2="353" y2="280"/>
  </g>
  <g id="Icone">
    <g>
      <path class="cls-33" d="M936.13,637.18h162.24c8.32,0,15.13,6.8,15.13,15.13v185.98c0,8.33-6.81,15.13-15.13,15.13h-162.24c-8.32,0-15.13-6.8-15.13-15.13v-185.98c0-8.4,6.8-15.13,15.13-15.13Z"/>
      <path class="cls-12" d="M955.53,684.97l6.67,6.66,10.79-10.71"/>
      <path class="cls-12" d="M968.5,749.92c3.35-2.33,4.19-6.93,1.87-10.27-2.33-3.36-6.92-4.19-10.27-1.87-3.36,2.31-4.19,6.92-1.88,10.27,2.33,3.35,6.93,4.19,10.28,1.87Z"/>
      <path class="cls-12" d="M968.5,807.4c3.35-2.33,4.19-6.92,1.87-10.27-2.32-3.35-6.92-4.19-10.27-1.87-3.35,2.32-4.19,6.93-1.87,10.27,2.33,3.35,6.93,4.19,10.27,1.87Z"/>
      <path class="cls-12" d="M993.9,687.64h67.33"/>
      <path class="cls-12" d="M993.9,743.9h67.33"/>
      <path class="cls-12" d="M993.9,800.88h67.33"/>
    </g>
    <g>
      <path class="cls-36" d="M1023.06,694.42h162.24c8.32,0,15.13,6.8,15.13,15.13v185.98c0,8.33-6.81,15.13-15.13,15.13h-162.24c-8.32,0-15.13-6.8-15.13-15.13v-185.98c0-8.4,6.8-15.13,15.13-15.13Z"/>
      <path class="cls-16" d="M1042.46,742.2l6.67,6.66,10.79-10.71"/>
      <path class="cls-16" d="M1055.44,807.16c3.35-2.33,4.19-6.93,1.87-10.27-2.33-3.36-6.92-4.19-10.27-1.87-3.36,2.31-4.19,6.92-1.88,10.27,2.33,3.35,6.93,4.19,10.28,1.87Z"/>
      <path class="cls-16" d="M1055.43,864.64c3.35-2.33,4.19-6.92,1.87-10.27-2.32-3.35-6.92-4.19-10.27-1.87-3.35,2.32-4.19,6.93-1.87,10.27,2.33,3.35,6.93,4.19,10.27,1.87Z"/>
      <path class="cls-15" d="M1080.84,744.87h67.33"/>
      <path class="cls-15" d="M1080.84,801.13h67.33"/>
      <path class="cls-15" d="M1080.84,858.11h67.33"/>
    </g>
    <g>
      <path class="cls-33" d="M980.26,123h274.81c3.8,0,7.56.75,11.07,2.2,3.51,1.45,6.7,3.58,9.38,6.27,2.69,2.69,4.82,5.87,6.27,9.38,1.46,3.51,2.2,7.27,2.2,11.07v200.9c0,3.8-.75,7.56-2.2,11.07-1.45,3.51-3.58,6.7-6.27,9.38-2.69,2.69-5.88,4.82-9.38,6.27-3.51,1.46-7.27,2.2-11.07,2.2h-274.81c-3.8,0-7.56-.75-11.07-2.2-3.51-1.45-6.7-3.58-9.38-6.27-2.69-2.69-4.82-5.88-6.27-9.38-1.46-3.51-2.2-7.27-2.2-11.07h0v-200.9c0-3.8.75-7.56,2.2-11.07,1.45-3.51,3.58-6.7,6.27-9.38,2.69-2.69,5.87-4.82,9.38-6.27,3.51-1.46,7.27-2.2,11.07-2.2h0Z"/>
      <path class="cls-1" d="M1100.15,162.81c0-4.6,1.83-9.01,5.08-12.25,3.25-3.25,7.66-5.08,12.26-5.08h126.64c4.6,0,9,1.83,12.25,5.08,3.25,3.25,5.08,7.66,5.09,12.25v146.32c-17.7-12.28-40.64-12.42-40.87-12.42-.08.16-10.01,16.54-35.65,16.54-2.25,0-4.51-.12-6.75-.35-12.5-1.29-13.54-16.05-13.55-16.2-6.59.24-13.15,1-19.61,2.26-16.72,8.82-21.76,4.27-32.39,14.38-4.61,4.42-8.79,9.27-12.48,14.48l-.03.04v-165.04Z"/>
      <path class="cls-21" d="M1218.04,288.41v-.08c.62-12.3,2.11-42.13,2.27-53.25.24-24.52-12.68-40.18-34.69-41.9-2.19-.15-4.3-.24-6.34-.24-16.52,0-28.04,5.49-35.25,16.76-4.23,6.58-5.09,15.19-6.11,24.28-.47,4.15-.94,8.46-1.72,12.93l-.24,1.09c-1.72,9.64-3.52,19.51,1.96,27.49,4.47,6.5,13.32,7.91,20.05,7.91,2.82,0,5.64-.23,8.38-.7l.39,10.64-7.75,32.11,51.31,9.56,10.12-38.29"/>
      <path class="cls-45" d="M1192.82,272.68s22.16-14.88,16.68-26.63c-5.48-11.74-23.49-4.69-23.49-4.69,0,0-7.05-3.14-5.48-17.23,0,0-20.37,12.54-22.71-9.4,0,0-27.41,10.18-31.33-14.09-4.15-25.61,24.28-36.8,41.51-21.93,0,0,7.05-14.88,23.49-11.75,14.73,2.82,17.23,17.23,17.23,17.23,0,0,16.52-5.4,23.49,3.92,7.06,9.39.78,21.14.78,21.14,0,0,15.51,5.57,13.32,21.93-.86,6.89-4.54,13.16-10.18,17.23,0,0,14.09,8.62,3.91,21.93,0,0,6.27,14.89-9.39,21.94-15.43,6.97-30.78-6.26-37.83-19.58Z"/>
      <path class="cls-4" d="M1153.51,250.67l-.23-.24c-.87-.71-1.1-1.87-.71-2.82l.47-1.8"/>
      <path class="cls-4" d="M1158.36,256.86c-2.11,2.73-5.87,2.58-7.05,1.72"/>
      <path d="M1163.92,244.49c1.13,0,2.04-.91,2.04-2.04s-.91-2.04-2.04-2.04-2.04.92-2.04,2.04.91,2.04,2.04,2.04Z"/>
      <path d="M1146.07,241.82c1.12,0,2.04-.91,2.04-2.04s-.92-2.04-2.04-2.04-2.04.91-2.04,2.04.91,2.04,2.04,2.04Z"/>
      <path class="cls-4" d="M1166.43,282.62c3.44-.94,7.28-1.48,10.41-2.51"/>
      <path class="cls-4" d="M1187.73,256.86l5.88-2.97"/>
      <path class="cls-22" d="M1166.43,282.62l.31,7.53s7.92-2.74,13.86-8.39c.54-.55.62-1.48.08-2.04-.39-.39-1.01-.55-1.57-.39-4.15,1.42-8.38,2.51-12.68,3.29Z"/>
      <path class="cls-4" d="M1167.99,178.7c-3.13,4.69,0,12.3,0,12.3"/>
      <path class="cls-4" d="M1208.72,184.18c-9.01,4.7-9.79,9.32-9.79,9.32"/>
      <path class="cls-4" d="M1157.82,214.72c7.05-2.66,10.17-5.95,10.17-5.95"/>
      <path class="cls-4" d="M1180.53,224.12c.7-7.05,4.77-13.31,4.77-13.31"/>
      <path class="cls-3" d="M989.1,359.24c-2.73,0-5.35-1.09-7.28-3.02-1.93-1.93-3.01-4.55-3.02-7.28v-15.38c0-2.73,1.09-5.35,3.02-7.28,1.93-1.93,4.55-3.01,7.28-3.02h76.05c2.73,0,5.35,1.09,7.28,3.02,1.93,1.93,3.02,4.55,3.02,7.28v15.38c-.02,2.73-1.11,5.33-3.04,7.26-1.93,1.93-4.53,3.02-7.26,3.04h-76.05Z"/>
      <path class="cls-4" d="M1012.92,359.22v-21.98"/>
      <path class="cls-4" d="M1029.6,359.22v-21.98"/>
      <path class="cls-4" d="M1037.94,359.22v-21.98"/>
      <path class="cls-4" d="M1046.28,359.22v-21.98"/>
      <path class="cls-4" d="M1054.57,359.22v-21.98"/>
      <path class="cls-4" d="M1065.28,359.22v-21.98"/>
      <path class="cls-43" d="M1010.52,211.12c-8.4-.01-16.45-3.35-22.39-9.29-5.94-5.94-9.28-14-9.29-22.39v-24.37c-.01-1.26.23-2.49.7-3.66.47-1.16,1.17-2.21,2.04-3.1.88-.89,1.92-1.6,3.08-2.09,1.15-.49,2.39-.74,3.64-.75h44.29c2.54,0,4.98,1.01,6.78,2.81,1.8,1.8,2.81,4.24,2.82,6.79v24.37c-.01,8.39-3.35,16.45-9.29,22.39-5.93,5.94-13.99,9.28-22.38,9.29h0Z"/>
      <path class="cls-36" d="M1010.46,193.58c-1.51-3.79-3.77-7.23-6.66-10.12-2.88-2.88-6.32-5.15-10.11-6.66,3.79-1.51,7.23-3.79,10.11-6.67,2.89-2.89,5.15-6.33,6.66-10.12,1.52,3.79,3.79,7.23,6.68,10.11,2.89,2.89,6.33,5.16,10.12,6.66-3.79,1.52-7.23,3.79-10.11,6.68-2.89,2.89-5.15,6.33-6.66,10.12v.04s-.03-.04-.03-.04Z"/>
      <path class="cls-44" d="M1117.49,359.24c-4.6,0-9.01-1.84-12.26-5.09-3.25-3.25-5.08-7.66-5.08-12.25v-14.04c3.68-5.24,7.86-10.11,12.49-14.54,16.89-16,51.7-16.63,52.04-16.63.57,3.71,1.56,7.33,2.95,10.8,3.73,9.05,8.82,11.39,12.44,11.77,1.73.18,3.47.27,5.21.27,26.56,0,35.24-22.61,35.32-22.84h.04c1.02,0,23.48.35,40.84,12.43v32.77c-.01,4.6-1.85,9.01-5.11,12.27-3.26,3.25-7.67,5.08-12.28,5.08h-126.59Z"/>
      <path class="cls-37" d="M1187.94,329.92c-4.21-.02-8.42-.38-12.58-1.09-18.7-3.11-26.76-21.42-26.93-30.53,5.36-.95,10.8-1.51,16.24-1.66.04.14,3,13.36,15.38,15.58,2.81.51,5.67.77,8.54.78h0c21.74,0,31.89-16.19,31.99-16.35,5.77.18,11.49.95,17.09,2.29-3.72,7.68-9.13,14.44-15.81,19.76-9.49,7.46-20.91,11.23-33.94,11.23h0Z"/>
      <path class="cls-10" d="M1217.76,300.3l15.48,5.49"/>
      <path class="cls-10" d="M1211.12,306.19l11.99,11.49"/>
      <path class="cls-10" d="M1200.5,311.46l8.17,14.21"/>
      <path class="cls-10" d="M1189.3,313.13l1.3,16.66"/>
      <path class="cls-10" d="M1178.51,312.12l-4.94,16.22"/>
      <path class="cls-10" d="M1171.16,308.02l-12.63,11.74"/>
      <path class="cls-10" d="M1166.08,301.66l-15.18,5.89"/>
    </g>
    <g>
      <path class="cls-18" d="M474,451l800,137-175.78-206.92"/>
      <path class="cls-18" d="M1274,588l104.41-160.6"/>
      <path class="cls-18" d="M873,591l401-3-89,100"/>
      <g>
        <path class="cls-32" d="M1273.95,621.74c-17.99,0-32.62-14.65-32.62-32.66s14.63-32.62,32.62-32.62,32.62,14.63,32.62,32.62-14.63,32.66-32.62,32.66Z"/>
        <path class="cls-43" d="M1273.95,571.45c9.73,0,17.62,7.89,17.62,17.62s-7.89,17.66-17.62,17.66-17.62-7.93-17.62-17.66,7.89-17.62,17.62-17.62M1273.95,541.45c-26.26,0-47.62,21.36-47.62,47.62s21.36,47.66,47.62,47.66,47.62-21.38,47.62-47.66-21.36-47.62-47.62-47.62h0Z"/>
      </g>
      <path class="cls-32" d="M1185.85,709.33c9.73,0,17.66-7.89,17.66-17.62s-7.93-17.66-17.66-17.66-17.62,7.93-17.62,17.66,7.89,17.62,17.62,17.62Z"/>
      <path class="cls-32" d="M1381.81,445.07c9.73,0,17.62-7.93,17.62-17.66s-7.89-17.62-17.62-17.62-17.66,7.89-17.66,17.62,7.93,17.66,17.66,17.66Z"/>
      <path class="cls-32" d="M1094.49,395.73c9.73,0,17.62-7.93,17.62-17.66s-7.89-17.62-17.62-17.62-17.62,7.89-17.62,17.62,7.89,17.66,17.62,17.66Z"/>
    </g>
    <g>
      <path class="cls-33" d="M1962.1,477.31h32.94l3.49-32.94h-32.94l-3.49,32.94Z"/>
      <path class="cls-33" d="M1925.78,411.62h32.94l3.48-32.94h-32.94l-3.49,32.94Z"/>
      <path class="cls-39" d="M1868.56,498.2h32.94l3.49-32.94h-32.94l-3.48,32.94Z"/>
      <path class="cls-36" d="M1817.41,428.1h32.94l3.49-32.94h-32.94l-3.48,32.94Z"/>
      <path class="cls-36" d="M1743.16,462.87h32.94l3.49-32.94h-32.94l-3.48,32.94Z"/>
      <path class="cls-39" d="M1862.09,369.82h32.94l3.49-32.94h-32.94l-3.49,32.94Z"/>
    </g>
    <g>
      <path class="cls-33" d="M1222.48,953.33h-59.24v59.24h59.24v-59.24Z"/>
      <path d="M1192.95,997.97c8.29,0,15.02-6.73,15.02-15.02s-6.73-15.02-15.02-15.02-15.02,6.73-15.02,15.02,6.73,15.02,15.02,15.02Z"/>
      <path class="cls-4" d="M1354.15,782.11v165.46c0,4.68-.92,9.31-2.7,13.64-1.79,4.32-4.41,8.26-7.72,11.57-3.31,3.31-7.24,5.93-11.57,7.72-4.32,1.79-8.96,2.71-13.63,2.7h-125.41"/>
    </g>
    <g>
      <path class="cls-31" d="M1605.59,805.18c-5.48,0-10.21-2.15-13.33-5.92-3.22-3.86-4.4-9.13-3.22-14.61l8.05-41.58c2.26-11.29,13.33-20.52,24.61-20.52h156.56c5.48,0,10.21,2.14,13.33,5.91,3.22,3.87,4.4,9.14,3.22,14.62l-8.06,41.58c-2.25,11.28-13.32,20.52-24.61,20.52h-156.55Z"/>
      <path class="cls-31" d="M1607.84,886.84h-.43c-1.18-.21-1.93-1.4-1.72-2.47l15.47-79.51c.21-1.18,1.4-1.94,2.47-1.73,1.18.21,1.93,1.4,1.72,2.47l-15.47,79.52c-.11.97-1.08,1.72-2.05,1.72Z"/>
      <path class="cls-31" d="M1731.41,886.84h-.43c-1.18-.21-1.94-1.4-1.72-2.47l15.47-79.51c.21-1.18,1.4-1.94,2.47-1.73,1.17.21,1.93,1.4,1.72,2.47l-15.47,79.52c-.11.97-1.08,1.72-2.05,1.72Z"/>
      <path class="cls-31" d="M1474.8,1106.05h-.43c-1.18-.22-1.93-1.4-1.72-2.47l37.82-196.64c.21-1.18,1.4-1.94,2.47-1.72,1.18.21,1.93,1.4,1.72,2.46l-37.82,196.64c-.11.97-1.08,1.73-2.05,1.73Z"/>
      <path class="cls-31" d="M1565.49,1106.05h-.43c-1.18-.22-1.93-1.4-1.72-2.47l37.82-196.64c.21-1.18,1.4-1.94,2.47-1.72,1.18.21,1.93,1.4,1.72,2.46l-37.82,196.64c-.11.97-1.08,1.73-2.05,1.73Z"/>
      <path class="cls-31" d="M1781.69,1106.05c-.97,0-1.94-.76-2.15-1.73l-37.83-196.64c-.21-1.18.54-2.25,1.73-2.46,1.18-.22,2.25.53,2.46,1.72l37.83,196.64c.21,1.18-.53,2.25-1.72,2.47h-.32Z"/>
      <path class="cls-31" d="M1691,1106.05c-.97,0-1.94-.76-2.15-1.73l-37.83-196.64c-.21-1.18.54-2.25,1.73-2.46,1.18-.22,2.25.53,2.47,1.72l37.82,196.64c.21,1.18-.53,2.25-1.72,2.47h-.32Z"/>
      <path class="cls-31" d="M1508.13,908.33c-6.56,0-11.82-5.27-11.82-11.82s5.27-11.81,11.82-11.81h239.62c6.56,0,11.82,5.26,11.82,11.81s-5.27,11.82-11.82,11.82h-239.62Z"/>
      <path class="cls-40" d="M1647.81,908.33c-6.55,0-11.81-5.27-11.81-11.82s5.27-11.81,11.81-11.81h99.93c6.56,0,11.82,5.26,11.82,11.81s-5.27,11.82-11.82,11.82h-99.93Z"/>
    </g>
    <g>
      <path class="cls-21" d="M1664.04,580.77v-.09c.76-14.97,2.57-51.3,2.76-64.84.29-29.85-15.44-48.92-42.24-51.02-2.67-.19-5.24-.29-7.72-.29-20.12,0-34.14,6.68-42.91,20.41-5.15,8.01-6.19,18.5-7.44,29.56-.57,5.05-1.14,10.3-2.1,15.74l-.29,1.33c-2.1,11.74-4.28,23.75,2.39,33.47,5.44,7.92,16.22,9.63,24.41,9.63,3.43,0,6.87-.28,10.2-.85l.48,12.96-9.44,39.09,62.48,11.64,8.46-52.96"/>
      <path class="cls-45" d="M1633.34,561.61s26.99-18.12,20.3-32.42c-6.67-14.3-28.61-5.72-28.61-5.72,0,0-8.58-3.82-6.67-20.98,0,0-24.8,15.26-27.65-11.44,0,0-33.38,12.4-38.15-17.16-5.05-31.18,29.56-44.81,50.54-26.7,0,0,8.58-18.12,28.61-14.31,17.93,3.43,20.98,20.98,20.98,20.98,0,0,20.12-6.58,28.61,4.77,8.59,11.43.95,25.74.95,25.74,0,0,18.88,6.78,16.22,26.7-1.05,8.39-5.53,16.02-12.4,20.98,0,0,17.16,10.49,4.76,26.7,0,0,7.64,18.13-11.43,26.71-18.79,8.49-37.48-7.63-46.06-23.84Z"/>
      <path class="cls-4" d="M1585.47,534.82l-.28-.29c-1.06-.86-1.34-2.28-.86-3.43l.57-2.19"/>
      <path class="cls-4" d="M1591.38,542.35c-2.57,3.33-7.15,3.14-8.58,2.1"/>
      <path d="M1598.15,527.28c1.37,0,2.48-1.11,2.48-2.48s-1.11-2.48-2.48-2.48-2.48,1.12-2.48,2.48,1.11,2.48,2.48,2.48Z"/>
      <path d="M1576.41,524.04c1.36,0,2.48-1.11,2.48-2.48s-1.12-2.48-2.48-2.48-2.48,1.11-2.48,2.48,1.11,2.48,2.48,2.48Z"/>
      <path class="cls-4" d="M1601.21,573.71c4.19-1.14,8.86-1.8,12.68-3.05"/>
      <path class="cls-4" d="M1627.13,542.35l7.16-3.62"/>
      <path class="cls-22" d="M1601.21,573.71l.37,9.16s9.64-3.34,16.88-10.21c.66-.66.76-1.8.09-2.48-.48-.48-1.23-.66-1.91-.48-5.05,1.72-10.2,3.05-15.44,4Z"/>
      <path class="cls-4" d="M1603.1,447.19c-3.81,5.72,0,14.97,0,14.97"/>
      <path class="cls-4" d="M1652.69,453.86c-10.97,5.73-11.92,11.35-11.92,11.35"/>
      <path class="cls-4" d="M1590.72,491.04c8.58-3.24,12.39-7.24,12.39-7.24"/>
      <path class="cls-4" d="M1618.37,502.49c.85-8.58,5.81-16.21,5.81-16.21"/>
      <path class="cls-21" d="M1401.86,993.64c4.13-9.15,4.72-15.44,6.98-26.75v-.1l9.63-7.67,78.38,41.39v9.15c-2.75,10.52-6.29,21.15-10.22,31.96-2.37,6.19-4.72,12.59-7.38,18.88l-55.56-15.74-21.83-51.13Z"/>
      <path class="cls-40" d="M1400.98,995.4c.29-.59.59-1.27.88-1.76l23.8,12.09c7.08,3.54,8.26,13.27,2.26,18.29l-7.67,6.49c-.2.2-.2.49.1.68l59.01,29.4c-.2.29-.3.69-.4.99-1.08,2.65-2.26,5.31-3.44,8.06-2.85,6.49-5.8,13.18-9.15,19.87-.2.29-.59,1.08-.68,1.38l-69.33-26.26-50.25-33.92c10.03-10.23,39.53-4.92,54.87-35.31Z"/>
      <path class="cls-39" d="M1334.12,1045.07c2.37-4.82,5.12-8.46,8.17-11.32,1.17-1.08,2.46-2.16,3.74-3.04l119.77,59.78c-2.55,5.31-5.31,10.62-8.16,16.03l-123.52-61.46Z"/>
      <path class="cls-33" d="M1697.57,790.77l-6.49-30.29-92.93,14.95s-101.77,29.4-139.34,57.83c-28.51,21.54-32.45,40.71-42.48,93.71-2.65,14.16-5.21,28.33-7.47,39.83,0,0,0,.1.1.1l87.82,42.97c15.34-57.72,16.72-86.44,16.62-123.7l106.6.29c50.55.29,88.31-46.31,77.59-95.68Z"/>
      <path class="cls-22" d="M1439.92,876.32c18.78-43.07,73.46,9.84,73.46,9.84.2,37.17-1.28,65.98-16.62,123.7-2.75,10.52-6.29,21.15-10.23,31.96-2.36,6.19-4.72,12.59-7.38,18.88-.2.29-.29.69-.39.99-1.08,2.65-2.26,5.31-3.44,8.06-2.85,6.49-5.8,13.18-9.15,19.87-.2.29-.29.59-.39.98-2.55,5.31-5.31,10.62-8.16,16.03l-36.78-18.39c3.74-22.22,33.63-22.22,30.48-57.43-2.55-28.91-26.94-121.85-11.41-154.5Z"/>
      <path class="cls-21" d="M1473.55,1035.33c-.59-10.72-.68-13.96-5.7-31.47l5.21-11.11,88.5,1.67,4.14,7.96c2.26,10.62,3.93,21.83,5.21,33.34.78,6.97,1.47,14.06,1.97,21.33.1,1.18.2,2.26.2,3.44q0,.1-.1.1l-76.51,11.11-22.92-36.39Z"/>
      <path class="cls-40" d="M1441.1,1088.04c9.83-16.42,31.27-21.04,32.45-52.71h25.86c7.87,0,13.28,8.07,10.23,15.35l-3.93,9.15c-.1.29.1.69.39.69h66.87q.1,0,.1.1c.1,1.67.29,3.35.39,5.02.39,7.18.69,14.46.78,21.83v2.65s0,.1-.1.1l-36.18,6.3-97.95-6.3c-.1,0-.1-.1-.1-.1.39-.59.78-1.38,1.18-2.06Z"/>
      <path class="cls-39" d="M1440.02,1090.2h134.13q.1,0,.1.1c.1,5.41,0,10.82-.1,16.42l-137.87.5c0-5.41.78-9.94,2.26-13.67.39-1.18.89-2.26,1.48-3.35q-.1,0,0,0Z"/>
      <path class="cls-33" d="M1708.78,760.48l-125.08,2.86s-28.03,11.89-60.09,21.93c-34.62,10.82-73.76,28.02-87.33,52.6-17.9,32.45,5.31,75.03,20.26,126.76,3.93,13.86,8.06,27.73,11.31,39.04l97.75-1.28c.1,0,.1-.1.1-.1-12.29-58.22-23.9-82.31-40.72-115.45,0-.1,0-.2.11-.2h141.8c69.82.2,81.13-75.72,41.89-126.17Z"/>
      <path class="cls-13" d="M1429.99,869.93c1.66,26.95,16.12,58.51,26.55,94.7,3.93,13.86,8.06,27.73,11.31,39.04"/>
      <path class="cls-27" d="M1510.83,862.36l14.06,24.19h63.53c-34.32,0-65-28.02-77.49-24.39-.1.1-.2.2-.1.2Z"/>
      <path class="cls-4" d="M1505.51,1060.61l-13.48,29.6"/>
      <path class="cls-4" d="M1419.76,1030.91l-32.06,20.75"/>
      <path class="cls-4" d="M1466.77,1059.63l12.48,6.49"/>
      <path class="cls-4" d="M1460.77,1067.2l9.94,10.32"/>
      <path class="cls-4" d="M1388.59,1011.34l11.41,11.11"/>
      <path class="cls-4" d="M1381.02,1017.04l6.19,13.77"/>
      <path class="cls-13" d="M1524.88,886.65l-14.35-24.78"/>
      <path class="cls-36" d="M1504.02,753.34s26.49-68.05,45.89-106.03c19.39-37.97,48.01-45.3,48.32-45.32l.27,3.94c.15,2.48.73,4.87,1.77,7.49,2.64,6.5,8.22,11.56,15.15,13.41,4.65,1.24,9.41.98,13.94-.76,20.93-8.26,33.76-36.49,33.93-36.75,7.54-.02,14.85.8,21.68,2.63,43.43,11.58,56.92,51.42,63.52,75.16,11.04,39.88,19.02,116.42-7.52,147.2-8.96,10.33-21.73,15.07-37.55,13.69-1.79-.17-3.83-.52-6.11-1.12-19.19-5.12-50.08-26.29-90.52-62.01l-40.94-10.2s-25.85-1.91-61.83-1.33Z"/>
      <path class="cls-24" d="M1582.41,675.43l-16.55,79.24q-.03.09-.13.07c-1.19-.11-14.87-1.12-35.64-1.47-.09-.03-.07-.12-.07-.12l52.29-77.75c.03-.1.12-.08.09.03Z"/>
      <path class="cls-5" d="M1582.54,674.94l-16.71,79.82"/>
      <path class="cls-24" d="M1677.09,688.67l1.15,36.54q-.03.09-.12.07c-6.42-4.15-13.03-8.76-19.87-12.52l18.66-24.14c.03-.09.21-.04.19.05Z"/>
      <path class="cls-21" d="M1519.3,762.09c9.98,2.66,34.7-20.97,34.95-21.11,17.56,1.32,23.87.16,25.59-.2.33-.11.62-.04.86.23,1.46,1.41,7.14,6.79,14.59,13.57l36.22-54.87c-12.89-5.88-25.29-10.51-36.88-13.6-39.49-12.97-84.88,3.82-102.27,21.68-9.56,8.75-5.17,15.21-5.08,15.24-6.4,6.43-5.58,13.27-.17,16.65-1.17,3.25-.31,8.78,4.34,9.7,11.95,2.48,35.26-12.78,42.98-16.52.52-.06.49.44.25.57-2.71,3.65-24.08,28.08-15.38,28.67Z"/>
      <path class="cls-4" d="M1487.39,739.74c7.62-5.3,23.16-17.74,42.43-24"/>
      <path class="cls-4" d="M1487.28,723.02c17.55-15.06,39.65-23.52,39.65-23.52"/>
      <path class="cls-5" d="M1631.5,699.71c29.78,13.14,37.23,19.19,46.77,26.53"/>
      <path class="cls-5" d="M1677.07,688.36l1.19,37.88"/>
      <path class="cls-5" d="M1606.8,764.87l-11.51-10.29"/>
    </g>
    <g>
      <path class="cls-31" d="M1871.08,773.87h-22.44v333.14h22.44v-333.14Z"/>
      <path class="cls-31" d="M1324.42,773.87h-22.44v333.14h22.44v-333.14Z"/>
      <path class="cls-31" d="M1274.57,761.41h624.75c1.48,0,2.94.28,4.31.84,1.36.56,2.6,1.39,3.64,2.43,1.04,1.05,1.87,2.29,2.43,3.65.56,1.36.85,2.83.85,4.3s-.28,2.94-.85,4.31c-.56,1.36-1.39,2.6-2.43,3.64-1.04,1.05-2.28,1.87-3.64,2.43-1.37.56-2.83.85-4.31.85h-624.75c-1.48,0-2.94-.28-4.3-.85-1.37-.56-2.61-1.38-3.65-2.43-1.04-1.04-1.87-2.28-2.43-3.64-.56-1.37-.85-2.83-.85-4.31,0-1.47.28-2.94.85-4.3.56-1.36,1.39-2.6,2.43-3.65,1.04-1.04,2.28-1.87,3.65-2.43,1.36-.56,2.82-.85,4.3-.84Z"/>
    </g>
    <g>
      <path class="cls-39" d="M1819.68,760.27l-.03-130.04,47.8-.03.03,130.07h-47.8Z"/>
      <path class="cls-25" d="M1819.68,760.27l-.03-130.04,47.92,130.04h-47.89Z"/>
      <path d="M1843.61,744.8c5,0,9.05-4.06,9.05-9.06s-4.05-9.06-9.05-9.06-9.06,4.06-9.06,9.06,4.05,9.06,9.06,9.06Z"/>
      <path class="cls-40" d="M1772.33,760.27l-.03-130.04,47.8-.03.03,130.07h-47.8Z"/>
      <path class="cls-26" d="M1772.33,760.27l-.03-130.04,47.84,130.04h-47.81Z"/>
      <path d="M1796.26,744.8c5,0,9.06-4.06,9.06-9.06s-4.06-9.06-9.06-9.06-9.06,4.06-9.06,9.06,4.05,9.06,9.06,9.06Z"/>
      <path class="cls-4" d="M1819.68,631.06v129.19"/>
    </g>
    <g>
      <path class="cls-36" d="M625.12,576.76h223.76c13.43,0,24.32,10.88,24.32,24.32v181.34c0,13.43-10.89,24.32-24.32,24.32h-223.76c-13.43,0-24.32-10.89-24.32-24.32v-181.34c0-13.44,10.89-24.32,24.32-24.32Z"/>
      <line class="cls-11" x1="703" y1="620.55" x2="843.06" y2="620.55"/>
      <line class="cls-11" x1="703" y1="641.08" x2="843.06" y2="641.08"/>
      <line class="cls-11" x1="703" y1="661.6" x2="843.06" y2="661.6"/>
      <line class="cls-11" x1="703" y1="682.13" x2="843.06" y2="682.13"/>
      <line class="cls-11" x1="634.44" y1="702.65" x2="843.06" y2="702.65"/>
      <line class="cls-11" x1="634.44" y1="723.18" x2="843.06" y2="723.18"/>
      <line class="cls-11" x1="634.44" y1="743.7" x2="843.06" y2="743.7"/>
      <line class="cls-11" x1="634.44" y1="764.23" x2="843.06" y2="764.23"/>
    </g>
  </g>
  <g id="commun_illustration_for_session" data-name="commun illustration for session">
    <g>
      <path class="cls-4" d="M2511.38,922.56c-15.7,0-26.19,12.12-23.5,26.98l.8,4.27c.21,1.03,1.2,1.89,2.4,1.89h52.96c.9,0,1.7-.65,1.7-1.51v-.38l-.8-4.27c-2.79-14.96-17.79-26.98-33.57-26.98Z"/>
      <path class="cls-30" d="M2380.86,1109.12h181.98c3.9,0,7.2-2.65,7.79-6.25l25.79-138.46c1.4-7.68-4.8-14.77-13.09-14.77h-154.1c-10.89,0-20.19,7.39-22.09,17.51l-26.29,141.97Z"/>
      <path class="cls-33" d="M2644.89,1109.12h-188.68l-7.79-42.14-21.57-115.84c-.21-.85.5-1.51,1.4-1.51h168.19c10.89,0,20.19,7.39,22.09,17.51l26.38,141.97Z"/>
      <path class="cls-23" d="M2640.6,1086.02l-4.7-25.29h-188.67l1.19,6.26,192.18,19.03Z"/>
      <path class="cls-4" d="M2420.04,1008.74v98.49"/>
      <path class="cls-4" d="M2633.89,1060.83h-184.87"/>
      <path class="cls-13" d="M2530.26,989.32l6.5,35.05"/>
      <path class="cls-13" d="M2551.95,1006.85h-36.97"/>
    </g>
    <g>
      <path class="cls-33" d="M372.36,416.6h61.79c7.97,0,14.47,6.16,14.47,13.71v147.35c0,7.56-6.5,13.71-14.47,13.71h-61.79c-7.97,0-14.47-6.16-14.47-13.71v-147.35c0-7.56,6.5-13.71,14.47-13.71Z"/>
      <path class="cls-36" d="M421.1,450.92h-35.45c-4.55,0-8.26-3.52-8.26-7.83s3.72-7.85,8.26-7.85h35.45c4.55,0,8.26,3.54,8.26,7.85s-3.72,7.83-8.26,7.83Z"/>
      <path class="cls-40" d="M387.49,452.71c-5.61,0-10.1-4.31-10.1-9.57s4.55-9.57,10.1-9.57,10.1,4.31,10.1,9.57c.06,5.27-4.49,9.57-10.1,9.57Z"/>
      <path class="cls-36" d="M385.65,495.98h35.45c4.55,0,8.26,3.52,8.26,7.83s-3.72,7.85-8.26,7.85h-35.45c-4.55,0-8.26-3.54-8.26-7.85s3.72-7.83,8.26-7.83Z"/>
      <path class="cls-29" d="M419.27,494.24c5.61,0,10.1,4.32,10.1,9.57s-4.55,9.57-10.1,9.57-10.1-4.31-10.1-9.57c-.06-5.25,4.49-9.57,10.1-9.57Z"/>
      <path class="cls-36" d="M385.65,556.72h35.45c4.55,0,8.26,3.54,8.26,7.85s-3.72,7.83-8.26,7.83h-35.45c-4.55,0-8.26-3.52-8.26-7.83s3.72-7.85,8.26-7.85Z"/>
      <path class="cls-29" d="M419.27,554.99c5.61,0,10.1,4.31,10.1,9.57s-4.55,9.57-10.1,9.57-10.1-4.31-10.1-9.57c-.06-5.27,4.49-9.57,10.1-9.57Z"/>
      <path class="cls-36" d="M385.65,465.64h35.45c4.55,0,8.26,3.54,8.26,7.85s-3.72,7.83-8.26,7.83h-35.45c-4.55,0-8.26-3.52-8.26-7.83s3.72-7.85,8.26-7.85Z"/>
      <path class="cls-40" d="M387.49,463.86c5.61,0,10.1,4.31,10.1,9.56s-4.56,9.57-10.1,9.57-10.1-4.31-10.1-9.57,4.55-9.56,10.1-9.56Z"/>
      <path class="cls-36" d="M385.65,526.38h35.45c4.55,0,8.26,3.52,8.26,7.83s-3.72,7.85-8.26,7.85h-35.45c-4.55,0-8.26-3.54-8.26-7.85s3.72-7.83,8.26-7.83Z"/>
      <path class="cls-40" d="M387.49,524.64c5.61,0,10.1,4.31,10.1,9.57s-4.56,9.57-10.1,9.57-10.1-4.31-10.1-9.57,4.55-9.57,10.1-9.57Z"/>
    </g>
    <g>
      <path class="cls-6" d="M179.71,137.21l69.13-65.53c2.18-2.07,5.71-2.07,7.89,0l69.13,65.53"/>
      <path class="cls-36" d="M149.49,128.86h206.62c4.64,0,8.46,3.6,8.46,8.02v98.83c0,4.41-3.81,8.02-8.46,8.02h-206.62c-4.66,0-8.46-3.6-8.46-8.02v-98.83c0-4.41,3.8-8.02,8.46-8.02Z"/>
    </g>
    <g>
      <path class="cls-38" d="M679.61,673.94l-17.24-27.54v-16.52h1.76c1.62-.18,2.89-1.4,2.89-2.88v-.18c0-1.49-1.28-2.7-2.85-2.7h-14.39c-1.57,0-2.85,1.21-2.85,2.7v.18c0,1.49,1.28,2.7,2.8,2.88h1.8v16.52l-17.19,27.54c-.91,1.49-.38,3.29,1.09,4.19.47.27,1.04.4,1.61.4h39.7c1.8,0,3.23-1.4,3.23-3.06.05-.54-.09-1.08-.38-1.53Z"/>
      <path class="cls-44" d="M679.52,673.94l-7.88-12.69c-19.95,15.84-13.53-7.38-27.78-2.52l-9.5,15.21c-.91,1.49-.38,3.29,1.09,4.19.47.27,1.04.4,1.61.4h39.7c1.8,0,3.23-1.4,3.23-3.06,0-.54-.14-1.08-.47-1.53Z"/>
    </g>
    <g>
      <path class="cls-12" d="M363.46,793.17v28.25"/>
      <path class="cls-12" d="M363.46,901.58v28.25"/>
      <path class="cls-12" d="M431.79,861.5h-28.25"/>
      <path class="cls-12" d="M323.38,861.5h-28.25"/>
      <path class="cls-12" d="M315.2,813.24l19.89,19.89"/>
      <path class="cls-12" d="M391.88,889.92l19.89,19.89"/>
      <path class="cls-12" d="M411.77,813.24l-19.89,19.89"/>
      <path class="cls-12" d="M335.08,889.92l-19.89,19.89"/>
    </g>
    <g>
      <path class="cls-12" d="M800.46,131.17v28.25"/>
      <path class="cls-12" d="M800.46,239.58v28.25"/>
      <path class="cls-12" d="M868.79,199.5h-28.25"/>
      <path class="cls-12" d="M760.38,199.5h-28.25"/>
      <path class="cls-12" d="M752.2,151.24l19.89,19.89"/>
      <path class="cls-12" d="M828.88,227.92l19.89,19.89"/>
      <path class="cls-12" d="M848.77,151.24l-19.89,19.89"/>
      <path class="cls-12" d="M772.08,227.92l-19.89,19.89"/>
    </g>
    <g>
      <path class="cls-12" d="M2043.46,131.17v28.25"/>
      <path class="cls-12" d="M2043.46,239.58v28.25"/>
      <path class="cls-12" d="M2111.79,199.5h-28.25"/>
      <path class="cls-12" d="M2003.38,199.5h-28.25"/>
      <path class="cls-12" d="M1995.2,151.24l19.89,19.89"/>
      <path class="cls-12" d="M2071.88,227.92l19.89,19.89"/>
      <path class="cls-12" d="M2091.77,151.24l-19.89,19.89"/>
      <path class="cls-12" d="M2015.08,227.92l-19.89,19.89"/>
    </g>
    <path class="cls-20" d="M2358.08,635.52c3.35-3.36,6.72-6.7,10.07-10.07,15.23-15.29,23.92-33.59,23.75-55.48-.05-32.4-21.96-60.71-53.37-68.99-26.82-6.98-50.71-.81-70.88,18.4-3.69,3.52-6.98,7.47-11.05,11.85-4.07-4.38-7.36-8.33-11.05-11.85-20.17-19.22-44.06-25.39-70.88-18.4-31.42,8.28-53.32,36.59-53.37,68.99-.16,21.89,8.52,40.19,23.75,55.48,26.69,26.82,53.56,53.45,80.33,80.19l31.27,31.29c9.17-9.21,18.08-18.19,27.01-27.12M2249.83,671.59h142.07M2320.87,742v-140.81"/>
    <g>
      <path class="cls-36" d="M141.99,122.29h213.06c8.67,0,15.64,7.01,15.64,15.68v162.39c0,8.67-7.02,15.63-15.64,15.63h-213.06c-8.67,0-15.69-7.01-15.69-15.63v-162.39c.05-8.67,7.02-15.68,15.69-15.68Z"/>
      <path class="cls-37" d="M160.98,142.36h67.34c3.97,0,7.23,3.25,7.23,7.23v.31c0,3.97-3.25,7.23-7.23,7.23h-67.34c-3.97,0-7.23-3.25-7.23-7.23v-.31c0-3.97,3.25-7.23,7.23-7.23Z"/>
      <path class="cls-37" d="M327.24,142.36h43.45v14.76h-43.45c-3.97,0-7.23-3.25-7.23-7.23v-.31c0-3.97,3.25-7.23,7.23-7.23Z"/>
      <path class="cls-44" d="M217.48,211.25h22.5c3.97,0,7.23,3.25,7.23,7.22v.31c0,3.97-3.25,7.23-7.23,7.23h-22.5c-3.97,0-7.22-3.25-7.22-7.23v-.31c0-4.02,3.25-7.22,7.22-7.22Z"/>
      <path class="cls-33" d="M195.3,280.14h22.5c3.97,0,7.22,3.25,7.22,7.23v.31c0,3.97-3.25,7.23-7.22,7.23h-22.5c-3.97,0-7.23-3.25-7.23-7.23v-.31c0-4.02,3.25-7.23,7.23-7.23Z"/>
      <path class="cls-33" d="M244.42,280.14h43.6c3.97,0,7.23,3.25,7.23,7.23v.31c0,3.97-3.25,7.23-7.23,7.23h-43.6c-3.97,0-7.23-3.25-7.23-7.23v-.31c0-4.02,3.2-7.23,7.23-7.23Z"/>
      <path class="cls-30" d="M217.48,245.67h76.84c3.97,0,7.22,3.25,7.22,7.23v.31c0,3.97-3.25,7.23-7.22,7.23h-76.84c-3.97,0-7.22-3.25-7.22-7.23v-.31c0-3.97,3.25-7.23,7.22-7.23Z"/>
      <path class="cls-38" d="M160.98,176.78h67.34c3.97,0,7.23,3.25,7.23,7.23v.31c0,3.97-3.25,7.23-7.23,7.23h-67.34c-3.97,0-7.23-3.25-7.23-7.23v-.31c0-3.97,3.25-7.23,7.23-7.23Z"/>
      <path class="cls-38" d="M263.92,176.68h34.11c3.97,0,7.23,3.25,7.23,7.23v.31c0,3.97-3.25,7.22-7.23,7.22h-34.11c-3.97,0-7.22-3.25-7.22-7.22v-.31c0-4.02,3.25-7.23,7.22-7.23Z"/>
      <path class="cls-36" d="M141.99,122.29h29.21v193.71h-29.21c-8.67,0-15.69-7.01-15.69-15.63v-162.39c0-8.67,7.02-15.68,15.69-15.68Z"/>
      <path class="cls-2" d="M141.99,122.29h29.21v193.71h-29.21c-8.67,0-15.69-7.01-15.69-15.63v-162.39c0-8.67,7.02-15.68,15.69-15.68Z"/>
      <path class="cls-14" d="M370.69,166.67h-198.97"/>
      <path class="cls-14" d="M370.69,201.5h-198.97"/>
      <path class="cls-14" d="M370.69,236.85h-198.97"/>
      <path class="cls-14" d="M370.69,270.08h-198.97"/>
      <path class="cls-17" d="M171.2,122.29v193.71"/>
      <path class="cls-9" d="M143.75,149.75h10.01"/>
      <path class="cls-9" d="M143.75,184.06h10.01"/>
      <path class="cls-9" d="M143.75,218.37h10.01"/>
      <path class="cls-9" d="M143.75,253.2h10.01"/>
      <path class="cls-9" d="M143.75,287.52h10.01"/>
    </g>
    <g>
      <path class="cls-33" d="M1566.45,299.12h-44.72s-5.17,26.44,10.39,40.46h44.72c-15.56-14.02-10.39-40.46-10.39-40.46Z"/>
      <path class="cls-39" d="M1503.77,276.26h-44.72s-5.17,26.44,10.39,40.46h44.72c-15.62-14.02-10.39-40.46-10.39-40.46Z"/>
    </g>
    <path class="cls-37" d="M1501.97,387.18h-73.56c-4.05,0-7.36-3.3-7.36-7.36v-51.76c0-4.05,3.3-7.36,7.36-7.36h19.88c2.61,0,5.01,1.39,6.34,3.62l2.29,3.89c1.33,2.24,3.73,3.62,6.34,3.62h38.75c4.05,0,7.36,3.3,7.36,7.36v40.62c0,4.05-3.3,7.36-7.41,7.36q.05,0,0,0Z"/>
  </g>
  <g id="Layer_6" data-name="Layer 6">
    <g>
      <path class="cls-19" d="M1357.95,282.95c8.41-.81,14.54-8.25,13.74-16.66l-3.01-31.33c-.81-8.41-8.25-14.55-16.66-13.74-8.41.81-14.54,8.25-13.74,16.66l3.01,31.33c.81,8.41,8.25,14.54,16.66,13.74Z"/>
      <path class="cls-39" d="M1331.5,250.48l46.22-4.45c4.36-.42,8.25,2.79,8.67,7.15l2.65,27.53c.98,10.22-6.5,19.36-16.78,20.35l-24.91,2.4c-10.22.98-19.36-6.5-20.35-16.77l-2.65-27.53c-.42-4.37,2.79-8.25,7.15-8.68Z"/>
      <path class="cls-34" d="M1356.34,266.2c1.99-.19,3.77,1.27,3.96,3.26.19,2-1.27,3.77-3.27,3.96-1.99.19-3.77-1.27-3.96-3.26-.13-2,1.27-3.77,3.27-3.96ZM1356.1,263.71c-3.36.32-5.84,3.33-5.52,6.7.33,3.36,3.33,5.84,6.7,5.51,3.37-.32,5.84-3.32,5.52-6.69-.33-3.37-3.33-5.84-6.7-5.52Z"/>
      <path class="cls-7" d="M1357.05,274.93l.77,8.04"/>
    </g>
    <path class="cls-32" d="M456.19,468.69c9.73,0,17.66-7.93,17.66-17.66s-7.93-17.62-17.66-17.62-17.62,7.89-17.62,17.62,7.89,17.66,17.62,17.66Z"/>
    <path class="cls-32" d="M370.19,297.69c9.73,0,17.66-7.93,17.66-17.66s-7.93-17.62-17.66-17.62-17.62,7.89-17.62,17.62,7.89,17.66,17.62,17.66Z"/>
    <path class="cls-32" d="M865.85,606.33c9.73,0,17.66-7.89,17.66-17.62s-7.93-17.66-17.66-17.66-17.62,7.93-17.62,17.66,7.89,17.62,17.62,17.62Z"/>
    <path class="cls-8" d="M593.52,1091.79c-16.83-75.48-2.14-166.3,28.58-169.95,29.15-3.51,38.82,69.62,30.01,88.67-6.66,14.39-19.41-.29-6.59-30.8,11.75-27.86,46.12-84.94,78.35-83.51,32.23,1.43,4.37,59.37,4.37,59.37l126.77-46.91"/>
  </g>
</svg>